M48
; DRILL file KiCad 10.0.1 date 2026-06-06T13:18:52
; FORMAT={-:-/ absolute / metric / decimal}
; #@! TF.CreationDate,2026-06-06T13:18:52-04:00
; #@! TF.GenerationSoftware,Kicad,Pcbnew,10.0.1
; #@! TF.FileFunction,Plated,1,2,PTH
FMAT,2
METRIC
; #@! TA.AperFunction,Plated,PTH,ViaDrill
T1C0.300
; #@! TA.AperFunction,Plated,PTH,ComponentDrill
T2C0.800
; #@! TA.AperFunction,Plated,PTH,ComponentDrill
T3C1.000
; #@! TA.AperFunction,Plated,PTH,ComponentDrill
T4C1.600
; #@! TA.AperFunction,Plated,PTH,ComponentDrill
T5C2.200
%
G90
G05
T1
X107.0Y-83.0
X108.0Y-120.0
X112.732Y-112.232
T2
X90.0Y-98.5
X92.54Y-98.5
X96.955Y-113.0
X99.495Y-113.0
X103.232Y-126.768
X106.768Y-123.232
X112.732Y-117.268
X116.268Y-113.732
X120.46Y-61.5
X123.0Y-61.5
X124.5Y-77.0
X127.04Y-77.0
X155.46Y-77.5
X158.0Y-77.5
T3
X100.348Y-72.848
X105.652Y-78.152
X116.348Y-98.652
X121.652Y-93.348
X138.5Y-72.571
X142.964Y-124.036
X144.732Y-122.268
X145.571Y-65.5
X146.5Y-120.5
X154.0Y-113.0
X155.768Y-111.232
X157.536Y-109.464
T4
X164.0Y-93.5
X166.839Y-85.701
X167.899Y-82.788
X175.521Y-66.979
X181.39Y-61.11
X183.582Y-58.918
T5
X136.671Y-120.429
X142.894Y-114.207
X147.707Y-109.394
X153.929Y-103.171
M30
